<svg width="22" height="21" viewBox="0 0 22 21" fill="none" xmlns="http://www.w3.org/2000/svg">
<path d="M11.15 19.98C16.463 19.98 20.77 15.673 20.77 10.36C20.77 5.04701 16.463 0.73999 11.15 0.73999C5.83705 0.73999 1.53003 5.04701 1.53003 10.36C1.53003 15.673 5.83705 19.98 11.15 19.98Z" fill="white"/>
<path d="M10.9501 0C8.90065 9.54741e-07 6.89726 0.607857 5.19335 1.74667C3.48944 2.88549 2.16157 4.50409 1.37775 6.39771C0.593916 8.29134 0.389335 10.3749 0.789889 12.3848C1.19044 14.3947 2.17814 16.2407 3.62801 17.6892C5.07788 19.1376 6.92479 20.1235 8.93509 20.5222C10.9454 20.9208 13.0288 20.7142 14.9216 19.9285C16.8145 19.1429 18.4318 17.8134 19.569 16.1084C20.7061 14.4034 21.3121 12.3994 21.3101 10.35C21.3048 7.6049 20.2113 4.9739 18.2693 3.03376C16.3272 1.09362 13.6952 0.00264205 10.9501 0ZM9.95009 15.91C9.88724 15.9805 9.8102 16.0368 9.72403 16.0755C9.63786 16.1141 9.54451 16.134 9.45009 16.134C9.35567 16.134 9.26231 16.1141 9.17614 16.0755C9.08997 16.0368 9.01294 15.9805 8.95009 15.91C8.82596 15.7805 8.75463 15.6093 8.75009 15.43C8.74898 15.3391 8.76611 15.2489 8.80046 15.1647C8.83482 15.0806 8.8857 15.0042 8.95009 14.94C9.01189 14.8745 9.08624 14.8222 9.16871 14.7861C9.25118 14.7501 9.34007 14.731 9.43009 14.73C9.51939 14.7297 9.60785 14.7472 9.69028 14.7815C9.77271 14.8159 9.84745 14.8664 9.91009 14.93C10.0383 15.0609 10.1101 15.2368 10.1101 15.42C10.1267 15.5936 10.0806 15.7674 9.98009 15.91H9.95009ZM15.3401 15.91C15.2772 15.9805 15.2002 16.0368 15.114 16.0755C15.0279 16.1141 14.9345 16.134 14.8401 16.134C14.7457 16.134 14.6523 16.1141 14.5661 16.0755C14.48 16.0368 14.4029 15.9805 14.3401 15.91C14.2723 15.8455 14.2183 15.768 14.1815 15.682C14.1446 15.5961 14.1256 15.5035 14.1256 15.41C14.1256 15.3165 14.1446 15.2239 14.1815 15.138C14.2183 15.052 14.2723 14.9745 14.3401 14.91C14.4019 14.8445 14.4762 14.7922 14.5587 14.7561C14.6412 14.7201 14.7301 14.701 14.8201 14.7C14.9094 14.6997 14.9979 14.7172 15.0803 14.7515C15.1627 14.7859 15.2374 14.8364 15.3001 14.9C15.4283 15.0309 15.5001 15.2068 15.5001 15.39C15.5243 15.5735 15.4778 15.7594 15.3701 15.91H15.3401ZM17.4601 9.75L15.7601 14.08C15.7092 14.2084 15.6224 14.3195 15.5101 14.4C15.3925 14.4726 15.2582 14.5139 15.1201 14.52H9.47009C9.31874 14.5193 9.17159 14.4702 9.05009 14.38C8.92517 14.3118 8.82401 14.2072 8.76009 14.08L7.46009 9.73C7.46009 9.73 6.63009 6.91 6.61009 6.88H5.61009C5.52017 6.87848 5.43145 6.85913 5.34905 6.82308C5.26666 6.78704 5.19224 6.73501 5.13009 6.67C5.06232 6.60555 5.00835 6.52799 4.97148 6.44203C4.9346 6.35608 4.91559 6.26353 4.91559 6.17C4.91559 6.07647 4.9346 5.98392 4.97148 5.89797C5.00835 5.81201 5.06232 5.73445 5.13009 5.67C5.19224 5.60499 5.26666 5.55296 5.34905 5.51692C5.43145 5.48087 5.52017 5.46152 5.61009 5.46H7.09009C7.23837 5.46072 7.38234 5.50988 7.50009 5.6C7.6223 5.6855 7.71353 5.8083 7.76009 5.95L8.61009 8.79H16.7601C16.8761 8.79048 16.9899 8.82152 17.0901 8.88C17.1877 8.93142 17.2704 9.0072 17.3301 9.1C17.399 9.1897 17.4406 9.2973 17.4501 9.41C17.4884 9.51897 17.5021 9.6351 17.4901 9.75H17.4601Z" fill="#6C757D"/>
<path d="M10.0001 13.1599H14.6901L15.8501 10.1899H9.12012L10.0001 13.1599Z" fill="#6C757D"/>
</svg>
