<svg width="22" height="21" viewBox="0 0 22 21" fill="none" xmlns="http://www.w3.org/2000/svg">
<path d="M11.15 20.1599C16.463 20.1599 20.77 15.8529 20.77 10.5399C20.77 5.22694 16.463 0.919922 11.15 0.919922C5.83705 0.919922 1.53003 5.22694 1.53003 10.5399C1.53003 15.8529 5.83705 20.1599 11.15 20.1599Z" fill="white"/>
<path d="M11.1499 0.0800881C8.77103 0.080528 6.4659 0.906012 4.6275 2.41582C2.7891 3.92564 1.53124 6.02631 1.06834 8.35975C0.605437 10.6932 0.96615 13.115 2.08899 15.2122C3.21183 17.3095 5.02729 18.9524 7.22589 19.8609C9.42449 20.7694 11.8701 20.8873 14.1459 20.1944C16.4217 19.5016 18.3867 18.0408 19.7061 16.0613C21.0254 14.0817 21.6173 11.7059 21.381 9.33875C21.1446 6.97161 20.0946 4.7597 18.4099 3.08009C17.4565 2.12723 16.3245 1.37178 15.0787 0.856999C13.833 0.342216 12.4979 0.0782073 11.1499 0.0800881ZM12.4299 15.4301V15.4901C12.4314 15.8303 12.2985 16.1574 12.0599 16.4001C11.8177 16.6405 11.4912 16.7768 11.1499 16.7801C10.8086 16.7775 10.482 16.6407 10.2407 16.3994C9.99931 16.158 9.86256 15.8314 9.85994 15.4901C9.52046 15.4901 9.19489 15.3552 8.95485 15.1152C8.7148 14.8751 8.57994 14.5496 8.57994 14.2101C8.57843 13.8698 8.71142 13.5428 8.94994 13.3001C9.1922 13.0597 9.51869 12.9234 9.85994 12.9201H11.7599C11.9297 12.9201 12.0925 12.8527 12.2125 12.7326C12.3325 12.6126 12.3999 12.4498 12.3999 12.2801C12.3999 12.1103 12.3325 11.9476 12.2125 11.8275C12.0925 11.7075 11.9297 11.6401 11.7599 11.6401H10.4999C9.70035 11.6457 8.92744 11.3528 8.33251 10.8185C7.73757 10.2842 7.36346 9.54716 7.2834 8.75156C7.20334 7.95597 7.4231 7.15914 7.89966 6.51705C8.37621 5.87497 9.07526 5.43387 9.85994 5.28009V5.22009C9.85996 5.05081 9.89356 4.88322 9.95879 4.72702C10.024 4.57082 10.1196 4.42911 10.2399 4.31009C10.4816 4.06882 10.8085 3.93232 11.1499 3.93009C11.4912 3.93339 11.8177 4.06972 12.0599 4.31009C12.179 4.4296 12.273 4.57162 12.3365 4.72787C12.4 4.88411 12.4318 5.05144 12.4299 5.22009C12.7694 5.22009 13.095 5.35495 13.335 5.59499C13.5751 5.83504 13.7099 6.16061 13.7099 6.50009C13.7099 6.83956 13.5751 7.16514 13.335 7.40518C13.095 7.64523 12.7694 7.78009 12.4299 7.78009H10.4999C10.3307 7.78144 10.1689 7.84975 10.0499 7.97009C9.92901 8.09275 9.86082 8.25783 9.85994 8.43009C9.86252 8.59902 9.93078 8.76031 10.0502 8.87978C10.1697 8.99925 10.331 9.06751 10.4999 9.07009H11.7599C12.5595 9.06444 13.3324 9.35743 13.9274 9.89169C14.5223 10.4259 14.8964 11.163 14.9765 11.9586C15.0565 12.7542 14.8368 13.551 14.3602 14.1931C13.8837 14.8352 13.1846 15.2763 12.3999 15.4301H12.4299Z" fill="#6C757D"/>
</svg>
