<svg width="21" height="21" viewBox="0 0 21 21" fill="none" xmlns="http://www.w3.org/2000/svg">
<path d="M10.5199 19.75C15.8329 19.75 20.1399 15.443 20.1399 10.13C20.1399 4.81703 15.8329 0.51001 10.5199 0.51001C5.20692 0.51001 0.899902 4.81703 0.899902 10.13C0.899902 15.443 5.20692 19.75 10.5199 19.75Z" fill="white"/>
<path d="M10.36 0.000120784C8.31232 0.00802803 6.31287 0.6226 4.61423 1.76621C2.9156 2.90982 1.59397 4.53117 0.816267 6.42547C0.0385696 8.31978 -0.160309 10.4021 0.244751 12.4093C0.649811 14.4166 1.64064 16.2588 3.09209 17.7033C4.54354 19.1478 6.39051 20.1297 8.39971 20.5251C10.4089 20.9205 12.4902 20.7116 14.3808 19.9247C16.2713 19.1379 17.8863 17.8085 19.0217 16.1044C20.1571 14.4002 20.762 12.3979 20.76 10.3501C20.7601 8.98672 20.4907 7.63676 19.9674 6.37777C19.4442 5.11878 18.6773 3.97558 17.7109 3.01383C16.7445 2.05209 15.5977 1.29076 14.3362 0.77357C13.0747 0.256383 11.7234 -0.00646568 10.36 0.000120784ZM15.05 8.17012V12.7001C15.0476 12.8112 15.0134 12.9193 14.9513 13.0115C14.8893 13.1037 14.8021 13.1761 14.7 13.2201L10.76 14.9601V10.0801L15 8.20012L15.05 8.17012ZM10.52 9.56012L6.29004 7.68012L10.29 5.95012C10.3596 5.92041 10.4344 5.90509 10.51 5.90509C10.5857 5.90509 10.6605 5.92041 10.73 5.95012L14.73 7.68012L10.52 9.56012ZM10.24 10.0501V14.9601L6.34004 13.2201C6.23802 13.1761 6.15079 13.1037 6.08874 13.0115C6.02669 12.9193 5.99243 12.8112 5.99004 12.7001V8.17012L10.24 10.0501ZM10.52 18.3501C8.41952 18.3501 6.40504 17.5157 4.91975 16.0304C3.43446 14.5451 2.60004 12.5306 2.60004 10.4301C2.60004 8.3296 3.43446 6.31512 4.91975 4.82983C6.40504 3.34455 8.41952 2.51012 10.52 2.51012C10.6712 2.51012 10.8162 2.57018 10.9231 2.67707C11.03 2.78397 11.09 2.92895 11.09 3.08012C11.09 3.23129 11.03 3.37627 10.9231 3.48317C10.8162 3.59007 10.6712 3.65012 10.52 3.65012C9.00652 3.65595 7.53834 4.16729 6.34866 5.10294C5.15899 6.03859 4.31603 7.3449 3.95366 8.81441C3.59129 10.2839 3.73029 11.8324 4.34858 13.2139C4.96687 14.5953 6.02901 15.7306 7.3663 16.4394C8.70359 17.1483 10.2394 17.3899 11.7297 17.1261C13.2201 16.8623 14.5796 16.1081 15.5923 14.9833C16.605 13.8585 17.2129 12.4276 17.3194 10.9178C17.4258 9.40802 17.0248 7.90594 16.18 6.65012V7.08012C16.1774 7.22955 16.1162 7.37198 16.0096 7.47672C15.903 7.58147 15.7595 7.64014 15.61 7.64012C15.5365 7.64012 15.4637 7.62564 15.3957 7.59749C15.3278 7.56935 15.2661 7.5281 15.2141 7.4761C15.1621 7.4241 15.1208 7.36236 15.0927 7.29442C15.0645 7.22648 15.05 7.15366 15.05 7.08012V5.38012C15.05 5.2316 15.109 5.08916 15.2141 4.98414C15.3191 4.87912 15.4615 4.82012 15.61 4.82012H17.31C17.4586 4.82012 17.601 4.87912 17.706 4.98414C17.811 5.08916 17.87 5.2316 17.87 5.38012C17.8701 5.52958 17.8114 5.67306 17.7066 5.77968C17.6019 5.88629 17.4595 5.9475 17.31 5.95012H17.02C17.8454 7.1377 18.3299 8.52861 18.4208 9.97199C18.5118 11.4154 18.2058 12.8561 17.536 14.1379C16.8663 15.4197 15.8583 16.4936 14.6215 17.2432C13.3847 17.9928 11.9663 18.3895 10.52 18.3901V18.3501Z" fill="#6C757D"/>
</svg>
