<svg width="1920" height="318" viewBox="0 0 1920 318" fill="none" xmlns="http://www.w3.org/2000/svg">
<mask id="mask0_71_522" style="mask-type:alpha" maskUnits="userSpaceOnUse" x="0" y="0" width="1920" height="318">
<rect width="1920" height="318" fill="#D9D9D9"/>
</mask>
<g mask="url(#mask0_71_522)">
<path d="M-0.458046 26.4075L-1.333 26.7145L-1.38156 27.6405L-114.382 2182.04L-114.458 2183.5H-113H1987.5H1988.92L1988.88 2182.07L1936.85 299.179L1936.74 295.282L1934.37 298.376C1931.19 302.514 1926.17 305.48 1919.48 307.36C1912.8 309.24 1904.56 310.006 1895.12 309.815C1876.24 309.435 1852.78 305.238 1827.86 298.786C1778.03 285.886 1722.61 264.045 1686.72 246.1C1650.68 228.083 1618.01 214.604 1574.46 209.346C1530.95 204.091 1476.66 207.055 1397.39 221.767C1239.08 251.147 1154.49 251.823 1076.5 242.505C1037.6 237.859 992.087 222.525 951.816 206.494C931.694 198.484 912.906 190.31 896.937 183.228C892.448 181.237 888.178 179.331 884.162 177.538C873.912 172.962 865.32 169.126 858.966 166.51C849.872 162.765 840.762 158.211 830.615 153.138C801.678 138.672 764.308 119.99 694.812 103.84C670.048 98.0844 638.06 97.8378 606.056 100.566C574.03 103.296 541.878 109.016 516.736 115.258C491.848 121.437 435.379 126.712 374.072 120.111C312.747 113.508 246.875 95.0522 202.93 54.0253C158.399 12.4514 117.398 2.01399 82.5045 3.80678C54.6012 5.24041 30.6256 14.5182 12.1484 21.6683C7.60622 23.426 3.39628 25.0552 -0.458046 26.4075Z" fill="#050710" stroke="url(#paint0_linear_71_522)" stroke-width="2.76693"/>
</g>
<defs>
<linearGradient id="paint0_linear_71_522" x1="1.43597e-05" y1="5.00005" x2="2013.63" y2="386.836" gradientUnits="userSpaceOnUse">
<stop stop-color="#FF465A"/>
<stop offset="1" stop-color="#FF465A" stop-opacity="0"/>
<stop offset="1" stop-color="#050710"/>
</linearGradient>
</defs>
</svg>
