<svg width="14" height="13" viewBox="0 0 14 13" fill="none" xmlns="http://www.w3.org/2000/svg">
<path d="M11.9766 1.01562H11.3672V0H10.3516V1.01562H3.64844V0H2.63281V1.01562H2.02344C1.18341 1.01562 0.5 1.69904 0.5 2.53906V11.4766C0.5 12.3166 1.18341 13 2.02344 13H11.9766C12.8166 13 13.5 12.3166 13.5 11.4766V2.53906C13.5 1.69904 12.8166 1.01562 11.9766 1.01562ZM12.4844 11.4766C12.4844 11.7566 12.2566 11.9844 11.9766 11.9844H2.02344C1.74343 11.9844 1.51562 11.7566 1.51562 11.4766V4.77344H12.4844V11.4766ZM12.4844 3.75781H1.51562V2.53906C1.51562 2.25905 1.74343 2.03125 2.02344 2.03125H2.63281V3.04688H3.64844V2.03125H10.3516V3.04688H11.3672V2.03125H11.9766C12.2566 2.03125 12.4844 2.25905 12.4844 2.53906V3.75781Z" fill="#646464"/>
<path d="M3.44531 5.83984H2.42969V6.85547H3.44531V5.83984Z" fill="#646464"/>
<path d="M5.47656 5.83984H4.46094V6.85547H5.47656V5.83984Z" fill="#646464"/>
<path d="M7.50781 5.83984H6.49219V6.85547H7.50781V5.83984Z" fill="#646464"/>
<path d="M9.53906 5.83984H8.52344V6.85547H9.53906V5.83984Z" fill="#646464"/>
<path d="M11.5703 5.83984H10.5547V6.85547H11.5703V5.83984Z" fill="#646464"/>
<path d="M3.44531 7.87109H2.42969V8.88672H3.44531V7.87109Z" fill="#646464"/>
<path d="M5.47656 7.87109H4.46094V8.88672H5.47656V7.87109Z" fill="#646464"/>
<path d="M7.50781 7.87109H6.49219V8.88672H7.50781V7.87109Z" fill="#646464"/>
<path d="M9.53906 7.87109H8.52344V8.88672H9.53906V7.87109Z" fill="#646464"/>
<path d="M3.44531 9.90234H2.42969V10.918H3.44531V9.90234Z" fill="#646464"/>
<path d="M5.47656 9.90234H4.46094V10.918H5.47656V9.90234Z" fill="#646464"/>
<path d="M7.50781 9.90234H6.49219V10.918H7.50781V9.90234Z" fill="#646464"/>
<path d="M9.53906 9.90234H8.52344V10.918H9.53906V9.90234Z" fill="#646464"/>
<path d="M11.5703 7.87109H10.5547V8.88672H11.5703V7.87109Z" fill="#646464"/>
</svg>
