<svg width="54" height="54" viewBox="0 0 54 54" fill="none" xmlns="http://www.w3.org/2000/svg">
<circle opacity="0.3" cx="27" cy="27" r="27" fill="#EE5D6D"/>
<rect x="13.9116" y="16.1494" width="6.14299" height="15.0162" rx="3.07149" fill="#640B15"/>
<rect x="28.9263" y="16.1494" width="6.14299" height="15.0162" rx="3.07149" transform="rotate(90 28.9263 16.1494)" fill="#640B15"/>
<path d="M20.3976 38.7065C21.1336 38.7134 21.8448 38.4406 22.3873 37.9431C22.504 37.8195 22.6448 37.7211 22.8009 37.6538C22.9571 37.5865 23.1253 37.5518 23.2953 37.5518C23.4653 37.5518 23.6336 37.5865 23.7897 37.6538C23.9458 37.7211 24.0866 37.8195 24.2034 37.9431C24.7494 38.4349 25.4582 38.707 26.193 38.707C26.9279 38.707 27.6367 38.4349 28.1827 37.9431C28.2975 37.8183 28.437 37.7187 28.5923 37.6505C28.7476 37.5824 28.9153 37.5472 29.0849 37.5472C29.2545 37.5472 29.4223 37.5824 29.5776 37.6505C29.7329 37.7187 29.8724 37.8183 29.9872 37.9431C30.5313 38.4341 31.2382 38.7058 31.9711 38.7058C32.704 38.7058 33.4108 38.4341 33.9549 37.9431C34.0698 37.8183 34.2092 37.7187 34.3646 37.6505C34.5199 37.5824 34.6876 37.5472 34.8572 37.5472C35.0268 37.5472 35.1946 37.5824 35.3499 37.6505C35.5052 37.7187 35.6446 37.8183 35.7595 37.9431C36.302 38.4406 37.0131 38.7134 37.7491 38.7065C37.9792 38.7065 38.1999 38.6151 38.3626 38.4524C38.5253 38.2897 38.6167 38.0691 38.6167 37.839L38.6167 21.1496C38.6167 18.3882 36.3781 16.1496 33.6167 16.1496L24.53 16.1496C21.7686 16.1496 19.53 18.3882 19.53 21.1496L19.53 37.839C19.53 38.0691 19.6214 38.2897 19.7841 38.4524C19.9468 38.6151 20.1675 38.7065 20.3976 38.7065Z" fill="#EE5D6D"/>
<path d="M29.0742 30.6076L32.5445 30.6076C32.7746 30.6076 32.9953 30.699 33.158 30.8617C33.3207 31.0244 33.4121 31.2451 33.4121 31.4752C33.4121 31.7053 33.3207 31.926 33.158 32.0887C32.9953 32.2514 32.7746 32.3428 32.5445 32.3428L29.0742 32.3428C28.8441 32.3428 28.6235 32.2514 28.4608 32.0887C28.2981 31.926 28.2067 31.7053 28.2067 31.4752C28.2067 31.2451 28.2981 31.0244 28.4608 30.8617C28.6235 30.699 28.8441 30.6076 29.0742 30.6076Z" fill="white"/>
<path d="M24.4472 25.9797L32.5445 25.9797C32.7746 25.9797 32.9953 26.0711 33.158 26.2338C33.3207 26.3965 33.4121 26.6172 33.4121 26.8473C33.4121 27.0774 33.3207 27.298 33.158 27.4607C32.9953 27.6234 32.7746 27.7148 32.5445 27.7148L24.4472 27.7148C24.2171 27.7148 23.9964 27.6234 23.8337 27.4607C23.671 27.298 23.5796 27.0774 23.5796 26.8473C23.5796 26.6172 23.671 26.3965 23.8337 26.2338C23.9964 26.0711 24.2171 25.9797 24.4472 25.9797Z" fill="white"/>
<path d="M24.4472 21.3537L32.5445 21.3537C32.7746 21.3537 32.9953 21.4451 33.158 21.6078C33.3207 21.7705 33.4121 21.9912 33.4121 22.2213C33.4121 22.4514 33.3207 22.6721 33.158 22.8348C32.9953 22.9975 32.7746 23.0889 32.5445 23.0889L24.4472 23.0889C24.2171 23.0889 23.9964 22.9975 23.8337 22.8348C23.671 22.6721 23.5796 22.4514 23.5796 22.2213C23.5796 21.9912 23.671 21.7705 23.8337 21.6078C23.9964 21.4451 24.2171 21.3537 24.4472 21.3537Z" fill="white"/>
</svg>
