<svg xmlns="http://www.w3.org/2000/svg" xmlns:xlink="http://www.w3.org/1999/xlink" viewBox="0 0 90.43 128.55"><defs><style>.cls-1{fill:url(#linear-gradient);}.cls-2{fill:#ff465a;}.cls-3,.cls-5{opacity:0.5;}.cls-4,.cls-5{fill:#fff;}</style><linearGradient id="linear-gradient" x1="45.21" x2="45.21" y2="128.55" gradientUnits="userSpaceOnUse"><stop offset="0" stop-color="#fff6f7"/><stop offset="1" stop-color="#ffc3ca"/></linearGradient></defs><g id="Layer_2" data-name="Layer 2"><g id="Device"><rect class="cls-1" x="23.54" width="43.35" height="128.55" rx="6.91"/><path class="cls-2" d="M34.7,23.27,1.53,81.72A11.63,11.63,0,0,0,11.6,99.09c18.78.06,46.92.11,66.43.14A12.36,12.36,0,0,0,88.57,80.39L53.16,22.93A10.73,10.73,0,0,0,34.7,23.27Z"/><g class="cls-3"><path class="cls-4" d="M35.65,27.53s.07-.21.28-.58c.11-.18.23-.42.41-.68l.7-.85c.28-.31.64-.61,1-1a10,10,0,0,1,1.42-.93,9.43,9.43,0,0,1,4.06-1.17,10,10,0,0,1,5.21,1.06,10.13,10.13,0,0,1,2.47,1.83c.19.19.38.39.56.59s.33.44.5.66c.34.45.62.91.91,1.38l8,12.77L81.92,74l2.94,4.77a11.71,11.71,0,0,1,1.73,5.8,11.87,11.87,0,0,1-12,12.23H68.44l-12.62,0L31,96.65l-11.82,0-2.88,0H14.81l-1.51-.11a11.09,11.09,0,0,1-5.44-2.36A11.32,11.32,0,0,1,3.8,83.89c.1-.46.15-.93.28-1.37s.28-.88.44-1.31L5.12,80c.2-.39.42-.74.63-1.12l2.49-4.34,9.09-15.83C22.9,49,27.43,41.19,30.6,35.81l3.67-6.18a14.8,14.8,0,0,1,1.38-2.1,17.19,17.19,0,0,1-1.1,2.26c-.79,1.46-1.95,3.59-3.42,6.32-3,5.48-7.39,13.38-12.84,23.12L9.36,75.16,6.91,79.52c-.2.37-.43.75-.62,1.11l-.51,1.09c-.14.38-.25.77-.38,1.16s-.15.79-.24,1.19A9.93,9.93,0,0,0,8.77,93a9.49,9.49,0,0,0,4.73,2l1.32.09H31l24.87,0,12.61,0,6.18,0A10.35,10.35,0,0,0,85.1,84.56a10.37,10.37,0,0,0-1.49-5.08q-1.48-2.42-2.92-4.78L60.26,41.23,52.45,28.34c-.29-.47-.56-.95-.86-1.35-.15-.21-.29-.43-.44-.63l-.51-.55a9.66,9.66,0,0,0-2.24-1.74A9.5,9.5,0,0,0,43.57,23a9.12,9.12,0,0,0-3.88,1,12,12,0,0,0-1.4.83c-.37.32-.74.59-1,.87l-.73.78c-.19.24-.34.46-.47.62A2.52,2.52,0,0,1,35.65,27.53Z"/></g><path class="cls-5" d="M38.46,42,39.9,66.81a4,4,0,0,0,3.75,3.79h0A4,4,0,0,0,47.92,67l2.89-24.93a3.15,3.15,0,0,0-3.16-3.52l-6.06,0A3.16,3.16,0,0,0,38.46,42Z"/><path class="cls-5" d="M49.74,83.6a6.06,6.06,0,1,1-3.8-7.68A6.06,6.06,0,0,1,49.74,83.6Z"/></g></g></svg>